HIERARCHY
ROOT Hips
{
  OFFSET 79.3648 94.8442 -68.0143
  CHANNELS 6 Xposition Yposition Zposition Zrotation Xrotation Yrotation
  JOINT RightUpLeg
  {
    OFFSET -8.9458 -8.66707 0.101652
    CHANNELS 3 Zrotation Xrotation Yrotation
    JOINT RightLeg
    {
      OFFSET 0 -44.4227 1.3727
      CHANNELS 3 Zrotation Xrotation Yrotation
      JOINT RightFoot
      {
        OFFSET 0.253549 -42.0924 -1.46059
        CHANNELS 3 Zrotation Xrotation Yrotation
        JOINT RightToes
        {
          OFFSET 0.04 -4.41509 8.4991
          CHANNELS 3 Zrotation Xrotation Yrotation
          End Site
          {
            OFFSET -0.08 -0.137448 9.77979
          }
        }
      }
    }
  }
  JOINT Spine
  {
    OFFSET 0 11.8905 0
    CHANNELS 3 Zrotation Xrotation Yrotation
    JOINT Spine1
    {
      OFFSET 0 25.6574 0.127663
      CHANNELS 3 Zrotation Xrotation Yrotation
      JOINT HEad
      {
        OFFSET 0 8.73416 0.011341
        CHANNELS 3 Zrotation Xrotation Yrotation
        End Site
        {
          OFFSET -0.29 12.7742 2.51395
        }
      }
      JOINT LeftShoulder1
      {
        OFFSET 8.99 -0.362252 -0.22
        CHANNELS 3 Zrotation Xrotation Yrotation
        JOINT LeftArm
        {
          OFFSET 10.2827 -0.00338 0.322123
          CHANNELS 3 Zrotation Xrotation Yrotation
          JOINT LeftForeArm
          {
            OFFSET 32.7669 0.099144 -1.42434
            CHANNELS 3 Zrotation Xrotation Yrotation
            JOINT LeftHand
            {
              OFFSET 27.5643 0.085362 1.02216
              CHANNELS 3 Zrotation Xrotation Yrotation
              End Site
              {
                OFFSET 16.7443 -0.6 1.50291
              }
            }
          }
        }
      }
      JOINT RightShoulder
      {
        OFFSET -8.99 -0.362252 -0.22
        CHANNELS 3 Zrotation Xrotation Yrotation
        JOINT RightArm
        {
          OFFSET -10.2827 -0.00338 0.322123
          CHANNELS 3 Zrotation Xrotation Yrotation
          JOINT RightForeArm
          {
            OFFSET -32.8971 0.099144 -1.42434
            CHANNELS 3 Zrotation Xrotation Yrotation
            JOINT RightHand
            {
              OFFSET -27.4921 0.085362 1.02216
              CHANNELS 3 Zrotation Xrotation Yrotation
              End Site
              {
                OFFSET -16.6312 -0.6 1.50291
              }
            }
          }
        }
      }
    }
  }
  JOINT LeftUpLeg
  {
    OFFSET 8.9458 -8.66707 0.101652
    CHANNELS 3 Zrotation Xrotation Yrotation
    JOINT LeftLeg
    {
      OFFSET 0 -44.4227 1.3727
      CHANNELS 3 Zrotation Xrotation Yrotation
      JOINT LeftFoot
      {
        OFFSET -0.253549 -42.0924 -1.46059
        CHANNELS 3 Zrotation Xrotation Yrotation
        JOINT LeftToes
        {
          OFFSET -0.04 -4.41509 8.4991
          CHANNELS 3 Zrotation Xrotation Yrotation
          End Site
          {
            OFFSET 0.08 -0.047448 9.77979
          }
        }
      }
    }
  }
}
MOTION
Frames:	12
Frame Time:	0.0166667
80.2146 95.3309 -62.6781 3.56079 -2.52404 28.3542 -2.5518 -24.5231 4.73493 -8.63531 23.2895 14.5198 10.2009 31.9883 -3.4567 -6.28482 -65.9084 15.4339 0.321059 5.13547 -4.31887 -3.93182 9.67919 -7.52445 9.00429 14.5646 -1.94113 -1.19271e-015 -1.59028e-015 3.18055e-015 -72.9405 -16.8313 -23.1257 -22.2361 53.5552 -108.352 6.54677 9.62745 -1.04006 14.4752 -0.542436 -5.76893 48.9686 5.74085 71.9582 -34.0629 -0.29491 136.628 11.8473 5.82859 -40.3745 10.6783 5.97603 -9.23859 -4.17761 31.9976 -11.2638 -15.9026 33.7191 5.57429 54.2176 -73.0061 22.9412 
79.8793 95.4885 -62.8954 3.83137 -2.30897 31.5928 -3.94203 -24.0393 3.49216 -8.25215 23.2597 12.7052 9.38797 31.5522 -3.13903 -7.82605 -65.1567 13.2841 0.151826 5.06968 -4.21912 -4.11124 9.59558 -7.35718 10.8168 14.6523 -6.06396 7.95139e-016 0 -3.18055e-015 -71.4507 -11.5324 -22.5651 -20.74 51.4624 -108.451 6.54677 9.62745 -1.04006 14.0191 -0.388838 -4.94915 46.8206 4.77395 73.0508 -38.2846 -3.31788 135.284 16.4502 3.92509 -42.6524 11.4185 5.1893 -9.08788 -5.62823 32.6236 -7.14659 -11.4294 32.361 3.80112 53.0356 -67.8813 26.2001 
79.5942 95.6253 -63.2185 3.96754 -2.08223 34.6459 -5.26926 -23.7232 2.49758 -7.64924 23.4369 10.9195 8.47675 30.5125 -2.75257 -9.34397 -63.3354 10.8561 0.0984975 5.03755 -4.16987 -4.19421 9.55539 -7.27526 12.496 14.5847 -9.90786 -1.19271e-015 -1.59028e-015 -0 -70.2168 -6.97782 -22.2868 -19.5253 49.2777 -108.028 6.54677 9.62745 -1.04006 13.4941 -0.25507 -4.21842 45.3053 3.6231 73.694 -42.5901 -5.03186 133.449 19.8291 2.4064 -44.1647 12.1743 4.35538 -9.22825 -7.89286 33.2999 -1.68269 -7.57149 29.7574 2.281 48.1734 -60.9822 26.8887 
79.3554 95.7186 -63.6596 3.94372 -1.84301 37.5141 -6.55438 -23.6302 1.79184 -6.78907 23.8414 9.08941 7.54991 28.9662 -2.3478 -10.6206 -60.5669 8.38892 0.184271 5.04322 -4.16676 -4.1346 9.56878 -7.27496 13.9541 14.3156 -13.4499 -7.95139e-016 7.95139e-016 3.18055e-015 -69.345 -3.26809 -22.1878 -18.597 47.2565 -107.329 6.54677 9.62745 -1.04006 12.8363 -0.158069 -3.69084 44.6116 2.29765 74.106 -46.524 -4.8165 131.164 21.4334 1.5841 -45.1397 13.0056 3.46079 -9.50036 -10.967 33.9175 4.85674 -4.75336 25.956 1.22037 41.1487 -53.1696 25.5744 
79.1458 95.7276 -64.2265 3.74612 -1.62209 40.2281 -7.77946 -23.7837 1.28736 -5.75342 24.4758 7.22725 6.74807 27.1142 -1.99149 -11.4714 -57.2038 6.18578 0.428032 5.08743 -4.21393 -3.89207 9.63973 -7.37114 15.1279 13.8167 -16.6673 -1.59028e-015 7.95139e-016 -0 -68.8611 -0.438636 -22.1929 -17.9114 45.5841 -106.639 6.54677 9.62745 -1.04006 12.0083 -0.0966051 -3.37331 44.8044 0.762229 74.4756 -49.5343 -2.37227 128.546 21.3565 1.4751 -45.7602 13.9711 2.54987 -9.67536 -14.6261 34.3245 11.9691 -3.04252 21.4033 0.624587 34.2567 -45.8003 23.4663 
78.9444 95.609 -64.9149 3.38567 -1.45468 42.8313 -8.91772 -24.1869 0.79548 -4.70856 25.3422 5.43476 6.15966 25.1959 -1.72053 -11.9066 -53.743 4.40009 0.817463 5.15711 -4.32278 -3.47995 9.74714 -7.60054 16.0423 13.0983 -19.5424 -7.95139e-016 2.38542e-015 -3.18055e-015 -68.6719 1.51282 -22.2722 -17.431 44.388 -106.195 6.54677 9.62745 -1.04006 11.0602 -0.0498677 -3.13634 45.8612 -1.04527 74.8244 -50.8512 2.18761 125.691 19.9621 2.01227 -45.8157 15.0492 1.69394 -9.51694 -18.3895 34.4152 18.89 -2.13101 16.8301 0.336723 29.1141 -40.1122 21.6282 
78.7294 95.3601 -65.7218 2.90113 -1.35721 45.368 -9.99581 -24.7602 0.192405 -3.73068 26.314 3.72857 5.73109 23.5077 -1.52334 -12.1133 -50.6747 2.98001 1.28833 5.22974 -4.51206 -2.98672 9.85573 -7.98945 16.8453 12.1838 -22.0806 2.38542e-015 0 3.18055e-015 -68.6116 2.6126 -22.446 -17.1525 43.7478 -106.119 6.54677 9.62745 -1.04006 10.1789 0.00517566 -2.80176 47.7156 -3.2019 74.9763 -49.4053 8.33125 122.501 17.0111 3.36977 -44.6705 16.1238 0.944529 -8.87207 -21.6427 34.1664 24.7767 -1.49008 12.9896 0.173768 26.3095 -36.7396 20.7455 
78.4853 95.0131 -66.6162 2.35696 -1.33321 47.8525 -11.0821 -25.3887 -0.449677 -2.70663 27.2796 1.96989 5.28759 22.1642 -1.34919 -12.2702 -48.1482 1.76434 1.73596 5.29182 -4.76526 -2.52381 9.95403 -8.5176 17.7247 11.0638 -24.3132 -1.59028e-015 1.59028e-015 -0 -68.529 2.95984 -22.7853 -17.0695 43.6555 -106.4 6.54677 9.62745 -1.04006 9.64864 0.070879 -2.32689 48.2228 -4.84013 74.7454 -43.9538 13.5038 116.817 11.6031 5.78007 -41.4519 17.0634 0.33104 -7.78456 -23.8928 33.6332 28.9981 -0.623322 10.3342 0.0198781 25.6977 -35.6393 21.0163 
78.2066 94.6322 -67.5548 1.83243 -1.38436 50.3009 -12.2292 -25.9137 -0.9799 -1.49308 28.1142 0.00668855 4.73683 21.0745 -1.16799 -12.4137 -45.906 0.624842 2.0737 5.34903 -5.05095 -2.15242 10.0655 -9.1339 18.7667 9.72543 -26.2648 7.95139e-016 2.38542e-015 6.36111e-015 -68.3455 2.75118 -23.3811 -17.1312 43.9802 -106.945 6.54677 9.62745 -1.04006 9.70151 0.125239 -1.90302 48.7704 -6.5534 73.8778 -34.7668 17.0937 110.553 2.98249 8.88296 -35.3578 17.8014 -0.145077 -6.52832 -24.9526 32.8764 31.196 0.67445 8.93812 -0.166582 26.7341 -36.2683 22.1769 
77.9001 94.2807 -68.4967 1.40886 -1.51612 52.7438 -13.4183 -26.1879 -1.34438 -0.136053 28.7311 -2.13056 4.149 20.0976 -0.991892 -12.4886 -43.6133 -0.482857 2.28496 5.4195 -5.35676 -1.86689 10.2258 -9.80736 19.8996 8.24541 -27.9071 7.95139e-016 -7.95139e-016 3.18055e-015 -68.0639 2.21951 -24.268 -17.2597 44.5045 -107.626 6.54677 9.62745 -1.04006 10.3695 0.137733 -1.80553 50.8399 -8.91088 72.5859 -25.7316 19.7373 106.761 -6.84791 11.1136 -27.1066 18.3461 -0.497769 -5.49918 -24.9301 31.9592 31.272 2.13658 8.69863 -0.371801 28.9341 -38.0873 23.8661 
77.5789 94.0021 -69.4104 1.15237 -1.73523 55.1758 -14.5534 -26.141 -1.53831 1.16761 29.1314 -4.26532 3.61882 19.1422 -0.839916 -12.4331 -41.0035 -1.58192 2.42313 5.5196 -5.68091 -1.63329 10.4545 -10.5119 20.9361 6.84 -29.169 7.95139e-016 0 9.54166e-015 -67.7409 1.58324 -25.3812 -17.3953 45.015 -108.309 6.54677 9.62745 -1.04006 11.4838 0.085602 -2.16507 54.1498 -11.747 71.3004 -21.3866 22.0452 106.983 -14.4738 11.7837 -20.1311 18.7373 -0.715687 -5.00598 -24.0882 30.9247 29.4791 3.18021 9.53105 -0.548278 32.1388 -40.8211 25.9582 
77.2589 93.8339 -70.2719 1.09228 -2.02687 57.4925 -15.5096 -25.8118 -1.46822 2.25474 29.3682 -6.23632 3.17923 18.1521 -0.71648 -12.1507 -37.761 -2.6779 2.55086 5.64772 -5.98612 -1.42757 10.7347 -11.1563 21.6481 5.79359 -30.0106 2.38542e-015 -3.97569e-015 3.18055e-015 -67.4536 1.05747 -26.6009 -17.5134 45.3708 -108.891 6.54677 9.62745 -1.04006 12.7896 -0.0394585 -2.93735 58.4132 -14.9544 70.3071 -23.1656 24.0803 111.898 -17.9341 11.963 -18.141 18.9924 -0.750814 -5.08773 -22.7342 29.768 26.4796 3.34903 11.2071 -0.632184 36.071 -44.0839 28.2982 
